<svg width="509" height="379" viewBox="0 0 509 379" fill="none" xmlns="http://www.w3.org/2000/svg">
<g opacity="0.5">
<path d="M0 367.636L10.6268 378.324H11.6859L0 366.571V367.636Z" fill="#414042"/>
<path d="M238.245 0.270581L237.98 0L0 239.369V240.433L57.237 182.864L116.987 242.961L57.2295 303.066L0 245.504V246.569L56.7009 303.598L0 360.627V361.691L57.2295 304.13L116.891 364.131L102.781 378.324H103.84L117.422 364.664L131.003 378.324H132.061L117.95 364.131L177.704 304.027L237.455 364.124L223.336 378.324H224.395L237.983 364.656L251.573 378.324H252.631L238.513 364.124L298.257 304.034L357.999 364.124L343.881 378.324H344.939L358.529 364.656L372.118 378.324H373.176L359.058 364.124L418.716 304.123L478.378 364.131L464.268 378.324H465.326L478.908 364.664L492.489 378.324H493.547L479.437 364.131L539.192 304.027L598.942 364.124L584.824 378.324H585.883L600 364.124L238.245 0.270581ZM418.197 182.332L358.443 242.437L298.693 182.339L358.447 122.235L418.197 182.332ZM357.918 121.703L298.163 181.807L238.504 121.799L298.259 61.7015L357.918 121.703ZM297.635 182.339L237.976 242.34L178.318 182.339L237.976 122.331L297.635 182.339ZM237.98 1.07187L297.731 61.1698L237.976 121.267L178.229 61.1698L237.98 1.07187ZM177.701 61.7015L237.447 121.799L177.789 181.807L118.039 121.71L177.701 61.7015ZM57.7666 182.332L117.509 122.242L177.261 182.339L117.517 242.428L57.7666 182.332ZM117.421 363.6L57.759 303.598L117.517 243.494L177.175 303.495L117.421 363.6ZM118.045 242.961L177.788 182.872L237.446 242.873L177.704 302.962L118.045 242.961ZM237.983 363.591L178.233 303.494L237.976 243.405L297.727 303.502L237.983 363.591ZM238.505 242.873L298.164 182.872L357.915 242.97L298.257 302.97L238.505 242.873ZM358.528 363.591L298.784 303.502L358.443 243.501L418.186 303.591L358.528 363.591ZM358.973 242.97L418.727 182.864L478.47 242.955L418.715 303.059L358.973 242.97ZM478.907 363.6L419.245 303.592L478.999 243.487L538.661 303.496L478.907 363.6Z" fill="#414042"/>
</g>
</svg>
