<svg width="88" height="49" viewBox="0 0 88 49" fill="none" xmlns="http://www.w3.org/2000/svg">
<path d="M23.808 48.3841H4.41599C2.87999 48.3841 1.75999 48.0321 1.05599 47.3281C0.351987 46.6241 -1.30534e-05 45.5041 -1.30534e-05 43.9681V25.9201C-1.30534e-05 23.1041 0.415987 20.6721 1.24799 18.6241C2.07999 16.5761 3.26399 14.9121 4.79999 13.6321L17.184 3.26407C18.464 2.17607 19.968 1.37607 21.696 0.864077C23.424 0.288076 25.376 7.62939e-05 27.552 7.62939e-05H34.944C36.48 7.62939e-05 37.6 0.352076 38.304 1.05607C39.008 1.69607 39.36 2.81607 39.36 4.41608V8.25607C39.36 9.08807 39.232 9.79207 38.976 10.3681C38.784 10.9441 38.464 11.4241 38.016 11.8081L34.368 14.8801H36.192C37.728 14.8801 38.848 15.2321 39.552 15.9361C40.256 16.6401 40.608 17.7601 40.608 19.2961V33.5041C40.608 34.3361 40.48 35.0401 40.224 35.6161C40.032 36.1921 39.712 36.6721 39.264 37.0561L26.784 47.4241C26.528 47.6801 26.112 47.9041 25.536 48.0961C25.024 48.2881 24.448 48.3841 23.808 48.3841ZM27.552 0.960075C23.264 0.960075 19.808 2.17607 17.184 4.60807C14.624 6.97607 13.344 10.5921 13.344 15.4561V33.5041C13.344 34.7201 13.6 35.6161 14.112 36.1921C14.688 36.7041 15.584 36.9601 16.8 36.9601H36.192C37.408 36.9601 38.272 36.7041 38.784 36.1921C39.36 35.6161 39.648 34.7201 39.648 33.5041V19.2961C39.648 18.0801 39.36 17.2161 38.784 16.7041C38.272 16.1281 37.408 15.8401 36.192 15.8401H25.728V14.4001C25.728 13.5681 25.952 12.9281 26.4 12.4801C26.848 11.9681 27.488 11.7121 28.32 11.7121H34.944C36.16 11.7121 37.024 11.4561 37.536 10.9441C38.112 10.3681 38.4 9.47208 38.4 8.25607V4.41608C38.4 3.20008 38.112 2.33608 37.536 1.82408C37.024 1.24808 36.16 0.960075 34.944 0.960075H27.552ZM20.064 26.8801V15.4561C20.064 12.5121 20.832 10.3361 22.368 8.92808C23.904 7.45608 25.952 6.72008 28.512 6.72008H32.928V7.68007H28.512C26.208 7.68007 24.384 8.35208 23.04 9.69608C21.696 10.9761 21.024 12.8961 21.024 15.4561V25.9201H32.928V26.8801H20.064ZM52.164 48.3841C50.628 48.3841 49.508 48.0641 48.804 47.4241C48.1 46.7201 47.748 45.5681 47.748 43.9681V40.1281C47.748 39.2961 47.844 38.5921 48.036 38.0161C48.292 37.4401 48.644 36.9601 49.092 36.5761L52.74 33.5041H50.916C49.38 33.5041 48.26 33.1521 47.556 32.4481C46.852 31.7441 46.5 30.6241 46.5 29.0881V14.8801C46.5 14.0481 46.596 13.3441 46.788 12.7681C47.044 12.1921 47.396 11.7121 47.844 11.3281L60.228 0.864077C60.548 0.608076 60.964 0.416075 61.476 0.288073C62.052 0.0960751 62.66 7.62939e-05 63.3 7.62939e-05H82.692C84.228 7.62939e-05 85.348 0.352076 86.052 1.05607C86.756 1.76008 87.108 2.88008 87.108 4.41608V22.4641C87.108 25.2801 86.66 27.7121 85.764 29.7601C84.932 31.7441 83.78 33.3761 82.308 34.6561L69.828 45.1201C68.612 46.1441 67.108 46.9441 65.316 47.5201C63.588 48.0961 61.668 48.3841 59.556 48.3841H52.164ZM71.94 36.9601C76.228 36.9601 79.652 35.7761 82.212 33.4081C84.836 30.9761 86.148 27.3281 86.148 22.4641V4.41608C86.148 3.20008 85.86 2.33608 85.284 1.82408C84.772 1.24808 83.908 0.960075 82.692 0.960075H63.3C62.084 0.960075 61.188 1.24808 60.612 1.82408C60.1 2.33608 59.844 3.20008 59.844 4.41608V18.6241C59.844 19.8401 60.1 20.7361 60.612 21.3121C61.188 21.8241 62.084 22.0801 63.3 22.0801H73.764V23.5201C73.764 24.3521 73.54 25.0241 73.092 25.5361C72.644 25.9841 72.004 26.2081 71.172 26.2081H64.548C63.332 26.2081 62.436 26.4961 61.86 27.0721C61.348 27.5841 61.092 28.4481 61.092 29.6641V33.5041C61.092 34.7201 61.348 35.6161 61.86 36.1921C62.436 36.7041 63.332 36.9601 64.548 36.9601H71.94ZM79.428 11.0401V22.4641C79.428 25.4081 78.66 27.6161 77.124 29.0881C75.588 30.4961 73.54 31.2001 70.98 31.2001H66.564V30.2401H70.98C73.284 30.2401 75.108 29.6001 76.452 28.3201C77.796 26.9761 78.468 25.0241 78.468 22.4641V12.0001H66.564V11.0401H79.428Z" fill="#7A9E7E"/>
</svg>
